<svg id="Layer_1" data-name="Layer 1" xmlns="http://www.w3.org/2000/svg" xmlns:xlink="http://www.w3.org/1999/xlink" viewBox="0 0 326.07 63.54"><defs><style>.cls-1{fill:#009fe3;}.cls-2{fill:#bfd123;}.cls-3{fill:#4a4a49;}.cls-4{opacity:0.65;fill:url(#linear-gradient);}.cls-5{fill:#545051;}</style><linearGradient id="linear-gradient" x1="66.34" y1="64.65" x2="80.01" y2="74.66" gradientUnits="userSpaceOnUse"><stop offset="0.33" stop-color="#12100b" stop-opacity="0"/><stop offset="1"/></linearGradient></defs><circle class="cls-1" cx="30.91" cy="12.37" r="12.37"/><circle class="cls-2" cx="58.07" cy="12.37" r="12.37"/><path class="cls-3" d="M81.65,67.13l-.18.08h0A30.77,30.77,0,0,0,69.9,64.14c-.47,0-1,0-1.43-.06h-.6A31,31,0,0,0,37,95h7.51A23.43,23.43,0,0,1,64,71.9l.5-.08a23.53,23.53,0,0,1,9.36.54l.09,0a.08.08,0,0,0,0,0C75.18,71.55,80,68.22,81.65,67.13Z" transform="translate(-36.96 -35.08)"/><path class="cls-4" d="M81.47,67.22h0c-.83.46-7.5,5.12-7.5,5.12h-.07a23.53,23.53,0,0,0-9.36-.54l5.38-7.68a30.77,30.77,0,0,1,11.55,3.08Z" transform="translate(-36.96 -35.08)"/><path class="cls-3" d="M125.94,95h-7.51c0-.55,0-1.09-.05-1.63A23.42,23.42,0,0,0,95,71.58a22.87,22.87,0,0,0-4.4.42,26.44,26.44,0,0,0-10,4.59,23.5,23.5,0,0,0-7.72,10.88H90a23.41,23.41,0,0,0-5.71-9.11,25.42,25.42,0,0,1,7.41-3,30.66,30.66,0,0,1,7,19.62H64.12a30.8,30.8,0,0,1,9.81-22.55,31.45,31.45,0,0,1,7.72-5.3,30.83,30.83,0,0,1,34.5,5.3,31.54,31.54,0,0,1,2.74,2.92A30.77,30.77,0,0,1,125.94,95Z" transform="translate(-36.96 -35.08)"/><polygon class="cls-5" points="99.55 54.06 104.34 54.06 104.35 27.91 117.09 27.92 117.09 24.05 99.56 24.04 99.55 54.06"/><path class="cls-5" d="M145.76,71.54a3.37,3.37,0,0,0-2.57,1,6.3,6.3,0,0,0-1.33,2.14l-.25.68h11.08V71.54Z" transform="translate(-36.96 -35.08)"/><path class="cls-5" d="M215.64,84.58c-.33-1.28-.68-2.53-1-3.69a18.53,18.53,0,0,0-1.35-3.26,7.39,7.39,0,0,0-2.19-2.45,10,10,0,0,0,3.47-2.94,7.48,7.48,0,0,0,1.44-4.5v-.08a8.09,8.09,0,0,0-.79-3.48,8.68,8.68,0,0,0-2.24-2.9,10.88,10.88,0,0,0-3.5-2,13.72,13.72,0,0,0-4.51-.7c-1.46,0-2.87.08-4.14.24s-2.65.39-4.14.68l-.4.08,0,29.53H201V62.77a15.12,15.12,0,0,1,1.87-.23,11.56,11.56,0,0,1,4.38.37,6.17,6.17,0,0,1,1.9,1.11,5.25,5.25,0,0,1,1.28,1.62,4.34,4.34,0,0,1,.46,2,4.54,4.54,0,0,1-.46,2.05,5.43,5.43,0,0,1-1.23,1.63,6.13,6.13,0,0,1-1.72,1.09,5.25,5.25,0,0,1-1.89.44,4.2,4.2,0,0,0-2.47.82,4.62,4.62,0,0,0-1.49,1.92l-.23.53.57.15a12.31,12.31,0,0,0,4.11.33,1,1,0,0,0,.31,0,4.28,4.28,0,0,1,2,1.74,14,14,0,0,1,1.36,3.08c.37,1.2.71,2.45,1,3.72a19,19,0,0,0,1.29,3.77l.13.29h5.09l-.32-.7A24.68,24.68,0,0,1,215.64,84.58Z" transform="translate(-36.96 -35.08)"/><polygon class="cls-5" points="192.62 24.08 187.78 24.08 187.77 54.1 204.69 54.1 204.75 50.23 192.61 50.23 192.62 24.08"/><path class="cls-5" d="M256.59,59.17l-10.83,30h4.86l2.4-7h10.43l-.26-.68a6.91,6.91,0,0,0-1.29-2.17,3.27,3.27,0,0,0-2.57-1h-5L258.66,66l8,23.18h5.14L261,59.17Z" transform="translate(-36.96 -35.08)"/><polygon class="cls-5" points="260.11 46.02 246.41 24.1 241.84 24.1 241.82 54.12 246.06 54.12 246.07 31.4 260.29 54.13 264.46 54.13 264.47 24.11 260.12 24.11 260.11 46.02"/><path class="cls-5" d="M324.59,74.55a23.42,23.42,0,0,0-3.33-2.11c-1.15-.59-2.23-1.2-3.22-1.8a10.94,10.94,0,0,1-2.41-1.92,3.29,3.29,0,0,1-.86-2.32,4.27,4.27,0,0,1,.26-1.48,3.44,3.44,0,0,1,.79-1.2,3.78,3.78,0,0,1,1.28-.83,9.33,9.33,0,0,1,4.31-.13,18.79,18.79,0,0,1,3.09.69l.43.13,1.47-3.5-.53-.16A26.12,26.12,0,0,0,322,59a22.31,22.31,0,0,0-3.53-.29h0a9.72,9.72,0,0,0-3.45.59A8.26,8.26,0,0,0,312.33,61a7.43,7.43,0,0,0-1.77,2.47,7.77,7.77,0,0,0,.45,7,10.73,10.73,0,0,0,2.6,2.74,21.24,21.24,0,0,0,3.31,2,36.27,36.27,0,0,1,3.19,1.75,10.52,10.52,0,0,1,2.36,2,3.63,3.63,0,0,1,.87,2.52A4.06,4.06,0,0,1,322,84.54a5.86,5.86,0,0,1-4.05,1.28h0a17,17,0,0,1-6.62-1.48l-.48-.21-1.4,3.51.42.2a17.64,17.64,0,0,0,4.44,1.44c.73.14,1.45.24,2.15.31s1.36.1,1.93.1h0a12.38,12.38,0,0,0,4.2-.66,9.75,9.75,0,0,0,3.14-1.82,7.68,7.68,0,0,0,2-2.64,8,8,0,0,0-.41-7.18A11.25,11.25,0,0,0,324.59,74.55Z" transform="translate(-36.96 -35.08)"/><path class="cls-1" d="M174.33,58.58h0c-8.44,0-15.57,6.94-15.57,15.16a15.54,15.54,0,0,0,15.56,15.49h0a15.5,15.5,0,0,0,11-4.54,15.33,15.33,0,0,0,4.57-10.94,14.87,14.87,0,0,0-4.57-10.67A15.63,15.63,0,0,0,174.33,58.58Zm0,26.69h0a11.37,11.37,0,1,1,0-22.73h0a11.54,11.54,0,0,1,8.15,3.32,11.05,11.05,0,0,1,3.34,7.89,11.46,11.46,0,0,1-11.49,11.52Z" transform="translate(-36.96 -35.08)"/><path class="cls-2" d="M358.47,63.08a15.63,15.63,0,0,0-11-4.5h0c-8.44,0-15.57,6.94-15.57,15.16a15.54,15.54,0,0,0,15.56,15.49h0a15.46,15.46,0,0,0,11-4.54A15.3,15.3,0,0,0,363,73.75,14.87,14.87,0,0,0,358.47,63.08ZM359,73.75a11.46,11.46,0,0,1-11.49,11.52h0A11.44,11.44,0,0,1,336,73.74a11,11,0,0,1,3.34-7.88,11.56,11.56,0,0,1,8.15-3.32h0A11.36,11.36,0,0,1,359,73.75Z" transform="translate(-36.96 -35.08)"/><path class="cls-5" d="M340.72,98.11v.5h11.66a3.21,3.21,0,0,0,3.21-3.21v-.5H343.93A3.21,3.21,0,0,0,340.72,98.11Z" transform="translate(-36.96 -35.08)"/><path class="cls-5" d="M167.16,98.11v.5h11.66A3.21,3.21,0,0,0,182,95.4v-.5H170.37A3.21,3.21,0,0,0,167.16,98.11Z" transform="translate(-36.96 -35.08)"/></svg>